<svg width="20" height="20" viewBox="0 0 20 20" fill="none" xmlns="http://www.w3.org/2000/svg">
<path fill-rule="evenodd" clip-rule="evenodd" d="M6.66602 1.66669C3.90459 1.66669 1.66602 3.90527 1.66602 6.66669V13.3334C1.66602 16.0948 3.90459 18.3334 6.66602 18.3334H13.3327C16.0941 18.3334 18.3327 16.0948 18.3327 13.3334V6.66669C18.3327 3.90526 16.0941 1.66669 13.3327 1.66669H6.66602ZM14.9993 5.83335C15.4596 5.83335 15.8327 5.46026 15.8327 5.00002C15.8327 4.53978 15.4596 4.16669 14.9993 4.16669C14.5391 4.16669 14.166 4.53978 14.166 5.00002C14.166 5.46026 14.5391 5.83335 14.9993 5.83335ZM14.166 10C14.166 12.3012 12.3005 14.1667 9.99935 14.1667C7.69816 14.1667 5.83268 12.3012 5.83268 10C5.83268 7.69883 7.69816 5.83335 9.99935 5.83335C12.3005 5.83335 14.166 7.69883 14.166 10ZM9.99935 12.5C11.3801 12.5 12.4993 11.3807 12.4993 10C12.4993 8.61931 11.3801 7.50002 9.99935 7.50002C8.61864 7.50002 7.49935 8.61931 7.49935 10C7.49935 11.3807 8.61864 12.5 9.99935 12.5Z" fill="#F7F9FA" fill-opacity="0.75"/>
</svg>
